<svg width="1200" height="360" viewBox="0 0 1200 360" fill="none" xmlns="http://www.w3.org/2000/svg" role="img" aria-labelledby="title desc">
<title id="title">Mujahiz IQ logo</title>
<desc id="desc">Professional logo for Mujahiz IQ, Iraq's smart supplier network.</desc>

<defs>
  <linearGradient id="g1" x1="34" y1="40" x2="250" y2="280" gradientUnits="userSpaceOnUse">
    <stop stop-color="#2563EB"/><stop offset="0.46" stop-color="#00B8D9"/><stop offset="1" stop-color="#16A34A"/>
  </linearGradient>
  <linearGradient id="g2" x1="72" y1="61" x2="220" y2="232" gradientUnits="userSpaceOnUse">
    <stop stop-color="#102B55"/><stop offset="1" stop-color="#0B1F3A"/>
  </linearGradient>
  <filter id="shadow" x="0" y="0" width="300" height="300" filterUnits="userSpaceOnUse" color-interpolation-filters="sRGB">
    <feDropShadow dx="0" dy="14" stdDeviation="18" flood-color="#0B1F3A" flood-opacity="0.18"/>
  </filter>
</defs>


<g filter="url(#shadow)">
  <rect x="72" y="60" width="228" height="228" rx="58" fill="url(#g2)"/>
  <path d="M86 252C142 260 226 247 282 194" stroke="url(#g1)" stroke-width="15" stroke-linecap="round" opacity="0.95"/>
  <path d="M96 85C152 78 233 92 276 151" stroke="url(#g1)" stroke-width="11" stroke-linecap="round" opacity="0.55"/>
  <path d="M127 223V133L174 184L221 133V223" stroke="white" stroke-width="16" stroke-linecap="round" stroke-linejoin="round"/>
  <circle cx="127" cy="133" r="12" fill="#00B8D9" stroke="white" stroke-width="5"/>
  <circle cx="174" cy="184" r="12" fill="#16A34A" stroke="white" stroke-width="5"/>
  <circle cx="221" cy="133" r="12" fill="#00B8D9" stroke="white" stroke-width="5"/>
  <circle cx="221" cy="223" r="9" fill="white" opacity="0.92"/>
  <circle cx="127" cy="223" r="9" fill="white" opacity="0.92"/>
  <circle cx="246" cy="102" r="31" fill="#FFFFFF"/>
  <path d="M232 102L242 112L262 88" stroke="#16A34A" stroke-width="8" stroke-linecap="round" stroke-linejoin="round"/>
</g>
<g>
  <text x="350" y="172" font-family="Inter, Segoe UI, Arial, sans-serif" font-size="86" font-weight="800" letter-spacing="-2.3" fill="#0B1F3A">Mujahiz</text>
  <text x="703" y="172" font-family="Inter, Segoe UI, Arial, sans-serif" font-size="86" font-weight="850" letter-spacing="-1.5" fill="#2563EB">IQ</text>
  <rect x="350" y="199" width="342" height="4" rx="2" fill="url(#g1)" opacity="0.95"/>
  <text x="350" y="252" font-family="Inter, Segoe UI, Arial, sans-serif" font-size="31" font-weight="500" fill="#475569" letter-spacing="0.2">Iraq’s Smart Supplier Network</text>
</g>
</svg>